<svg xmlns="http://www.w3.org/2000/svg" viewBox="0 0 1200 675" role="img" aria-label="Generative AI personalized marketing dashboard">
  <defs>
    <linearGradient id="bg" x1="0" y1="0" x2="1" y2="1">
      <stop offset="0" stop-color="#A78BFA"/>
      <stop offset="0.52" stop-color="#4F46E5"/>
      <stop offset="1" stop-color="#171234"/>
    </linearGradient>
    <filter id="shadow" x="-20%" y="-20%" width="140%" height="140%">
      <feDropShadow dx="0" dy="22" stdDeviation="24" flood-color="#111027" flood-opacity="0.34"/>
    </filter>
  </defs>
  <rect width="1200" height="675" fill="url(#bg)"/>
  <path d="M0 552 C168 488 299 598 462 513 C636 422 781 544 944 447 C1065 374 1149 402 1200 360 L1200 675 L0 675 Z" fill="#111027" opacity="0.2"/>
  <g filter="url(#shadow)">
    <rect x="196" y="116" width="810" height="445" rx="42" fill="#F8FAFC"/>
    <rect x="196" y="116" width="810" height="80" rx="42" fill="#111827"/>
    <rect x="196" y="166" width="810" height="36" fill="#111827"/>
    <circle cx="250" cy="158" r="12" fill="#EF4444"/>
    <circle cx="288" cy="158" r="12" fill="#FACC15"/>
    <circle cx="326" cy="158" r="12" fill="#22C55E"/>
    <rect x="248" y="244" width="214" height="246" rx="28" fill="#EEF2FF"/>
    <rect x="502" y="244" width="198" height="104" rx="24" fill="#DBEAFE"/>
    <rect x="732" y="244" width="222" height="104" rx="24" fill="#F5D0FE"/>
    <rect x="502" y="386" width="452" height="104" rx="24" fill="#DCFCE7"/>
    <circle cx="355" cy="330" r="54" fill="#818CF8"/>
    <rect x="290" y="413" width="130" height="22" rx="11" fill="#94A3B8"/>
    <rect x="540" y="284" width="120" height="18" rx="9" fill="#64748B"/>
    <rect x="770" y="284" width="136" height="18" rx="9" fill="#64748B"/>
    <rect x="540" y="426" width="310" height="18" rx="9" fill="#64748B"/>
  </g>
  <path d="M911 468 L1014 545 L962 558 L936 624 L884 501 Z" fill="#111827" stroke="#FFFFFF" stroke-width="10" stroke-linejoin="round"/>
  <g fill="none" stroke="#FFFFFF" stroke-width="8" opacity="0.65">
    <path d="M1046 160 C1098 203 1108 262 1078 326"/>
    <path d="M1050 392 C1102 437 1114 501 1082 565"/>
  </g>
</svg>
