<svg xmlns="http://www.w3.org/2000/svg" viewBox="0 0 1200 675" role="img" aria-label="AI semiconductor and market discussion">
  <defs>
    <linearGradient id="bg" x1="0" y1="0" x2="1" y2="1">
      <stop offset="0" stop-color="#5CA9FF"/>
      <stop offset="0.52" stop-color="#1D4ED8"/>
      <stop offset="1" stop-color="#0B1F4D"/>
    </linearGradient>
    <filter id="shadow" x="-20%" y="-20%" width="140%" height="140%">
      <feDropShadow dx="0" dy="20" stdDeviation="24" flood-color="#071A3D" flood-opacity="0.32"/>
    </filter>
  </defs>
  <rect width="1200" height="675" fill="url(#bg)"/>
  <path d="M0 552 C192 480 314 590 470 512 C635 430 791 535 933 452 C1052 383 1148 402 1200 360 L1200 675 L0 675 Z" fill="#061B3D" opacity="0.24"/>
  <g filter="url(#shadow)">
    <rect x="252" y="155" width="378" height="330" rx="42" fill="#EAF4FF"/>
    <rect x="308" y="211" width="266" height="218" rx="30" fill="#123B77"/>
    <rect x="350" y="249" width="182" height="140" rx="18" fill="#7DD3FC"/>
    <g stroke="#EAF4FF" stroke-width="11" stroke-linecap="round">
      <path d="M247 218 H178"/>
      <path d="M247 284 H178"/>
      <path d="M247 350 H178"/>
      <path d="M247 416 H178"/>
      <path d="M635 218 H704"/>
      <path d="M635 284 H704"/>
      <path d="M635 350 H704"/>
      <path d="M635 416 H704"/>
    </g>
  </g>
  <g filter="url(#shadow)">
    <rect x="690" y="174" width="270" height="258" rx="30" fill="#FFFFFF"/>
    <path d="M738 358 L790 309 L842 329 L911 244" fill="none" stroke="#22C55E" stroke-width="20" stroke-linecap="round" stroke-linejoin="round"/>
    <path d="M897 241 H937 V281" fill="none" stroke="#22C55E" stroke-width="20" stroke-linecap="round" stroke-linejoin="round"/>
    <rect x="738" y="218" width="88" height="18" rx="9" fill="#CBD5E1"/>
    <rect x="738" y="258" width="140" height="18" rx="9" fill="#CBD5E1"/>
  </g>
  <g opacity="0.55" stroke="#FFFFFF" stroke-width="6">
    <path d="M1044 145 V535"/>
    <path d="M1085 185 V575"/>
    <path d="M1126 125 V515"/>
  </g>
</svg>
