<svg xmlns="http://www.w3.org/2000/svg" viewBox="0 0 1200 675" role="img" aria-label="Baseball fandom and stadium culture">
  <defs>
    <linearGradient id="bg" x1="0" y1="0" x2="1" y2="1">
      <stop offset="0" stop-color="#FFE3A3"/>
      <stop offset="0.52" stop-color="#F59E0B"/>
      <stop offset="1" stop-color="#7C2D12"/>
    </linearGradient>
    <filter id="shadow" x="-20%" y="-20%" width="140%" height="140%">
      <feDropShadow dx="0" dy="22" stdDeviation="24" flood-color="#5B210C" flood-opacity="0.26"/>
    </filter>
  </defs>
  <rect width="1200" height="675" fill="url(#bg)"/>
  <path d="M0 567 C210 492 320 611 505 526 C670 450 799 566 972 462 C1086 394 1152 410 1200 374 L1200 675 L0 675 Z" fill="#5B210C" opacity="0.18"/>
  <g filter="url(#shadow)">
    <path d="M265 486 L600 170 L935 486 Z" fill="#15803D"/>
    <path d="M420 486 L600 316 L780 486 Z" fill="#FDE68A"/>
    <path d="M600 170 L600 316" stroke="#FFFFFF" stroke-width="10" stroke-linecap="round"/>
    <path d="M420 486 L600 316 L780 486" fill="none" stroke="#FFFFFF" stroke-width="10" stroke-linecap="round"/>
    <circle cx="600" cy="376" r="28" fill="#FFFFFF"/>
  </g>
  <g fill="#FFFFFF" opacity="0.9">
    <circle cx="212" cy="214" r="92"/>
    <path d="M151 151 C191 194 201 238 167 276" fill="none" stroke="#EF4444" stroke-width="10" stroke-linecap="round"/>
    <path d="M273 151 C233 194 223 238 257 276" fill="none" stroke="#EF4444" stroke-width="10" stroke-linecap="round"/>
  </g>
  <g>
    <path d="M907 122 L1037 122 L1015 293 L929 293 Z" fill="#1D4ED8"/>
    <path d="M903 122 L1039 122" stroke="#FFFFFF" stroke-width="18" stroke-linecap="round"/>
    <path d="M934 178 H1009" stroke="#FFFFFF" stroke-width="14" stroke-linecap="round" opacity="0.75"/>
    <path d="M927 234 H1016" stroke="#FFFFFF" stroke-width="14" stroke-linecap="round" opacity="0.75"/>
  </g>
  <g stroke="#FFFFFF" stroke-width="8" stroke-linecap="round" opacity="0.62">
    <path d="M115 430 C218 375 288 379 382 428"/>
    <path d="M818 429 C923 373 1002 377 1091 430"/>
  </g>
</svg>
