<svg xmlns="http://www.w3.org/2000/svg" viewBox="0 0 1200 675" role="img" aria-label="Game IP theme park island and NPC experience">
  <defs>
    <linearGradient id="sky" x1="0" y1="0" x2="0" y2="1">
      <stop offset="0" stop-color="#99D8FF"/>
      <stop offset="0.62" stop-color="#6EC6FF"/>
      <stop offset="1" stop-color="#FDE68A"/>
    </linearGradient>
    <filter id="shadow" x="-20%" y="-20%" width="140%" height="140%">
      <feDropShadow dx="0" dy="24" stdDeviation="24" flood-color="#27506B" flood-opacity="0.24"/>
    </filter>
  </defs>
  <rect width="1200" height="675" fill="url(#sky)"/>
  <path d="M0 545 C178 488 290 590 462 515 C635 438 781 555 954 465 C1070 405 1150 420 1200 385 L1200 675 L0 675 Z" fill="#25633B" opacity="0.16"/>
  <g fill="#FFFFFF" opacity="0.75">
    <rect x="128" y="111" width="198" height="86" rx="43"/>
    <rect x="242" y="84" width="145" height="72" rx="36"/>
    <rect x="855" y="103" width="210" height="88" rx="44"/>
  </g>
  <g filter="url(#shadow)">
    <ellipse cx="600" cy="505" rx="372" ry="88" fill="#0F766E"/>
    <path d="M268 495 C362 345 453 304 600 304 C747 304 838 345 932 495 C854 558 355 558 268 495 Z" fill="#34D399"/>
    <path d="M380 486 C493 421 710 414 820 486" fill="none" stroke="#FDE68A" stroke-width="22" stroke-linecap="round"/>
    <rect x="505" y="238" width="190" height="178" rx="22" fill="#F8FAFC"/>
    <rect x="536" y="174" width="128" height="92" rx="20" fill="#A78BFA"/>
    <path d="M536 174 L600 105 L664 174 Z" fill="#7C3AED"/>
    <rect x="557" y="326" width="86" height="90" rx="40" fill="#1E293B"/>
    <rect x="456" y="294" width="74" height="122" rx="20" fill="#F8FAFC"/>
    <rect x="670" y="294" width="74" height="122" rx="20" fill="#F8FAFC"/>
  </g>
  <g transform="translate(830 215)">
    <rect x="0" y="0" width="160" height="206" rx="36" fill="#111827" opacity="0.92"/>
    <rect x="28" y="40" width="104" height="104" rx="24" fill="#22C55E"/>
    <path d="M42 92 H118 M80 54 V130" stroke="#F8FAFC" stroke-width="16" stroke-linecap="round"/>
    <rect x="38" y="166" width="84" height="14" rx="7" fill="#F8FAFC" opacity="0.7"/>
  </g>
  <g fill="#F97316" opacity="0.9">
    <path d="M169 344 C222 315 233 370 194 393 C160 414 137 363 169 344 Z"/>
    <path d="M996 319 C1049 290 1060 345 1021 368 C987 389 964 338 996 319 Z"/>
  </g>
</svg>
