<svg xmlns="http://www.w3.org/2000/svg" viewBox="0 0 1200 675" role="img" aria-label="Character goods collaboration and store visit">
  <defs>
    <linearGradient id="bg" x1="0" y1="0" x2="1" y2="1">
      <stop offset="0" stop-color="#FFF3A3"/>
      <stop offset="0.48" stop-color="#FACC15"/>
      <stop offset="1" stop-color="#B45309"/>
    </linearGradient>
    <filter id="shadow" x="-20%" y="-20%" width="140%" height="140%">
      <feDropShadow dx="0" dy="22" stdDeviation="24" flood-color="#7C2D12" flood-opacity="0.28"/>
    </filter>
  </defs>
  <rect width="1200" height="675" fill="url(#bg)"/>
  <path d="M0 560 C180 492 304 604 470 520 C641 432 792 552 953 455 C1084 376 1149 399 1200 360 L1200 675 L0 675 Z" fill="#7C2D12" opacity="0.18"/>
  <g filter="url(#shadow)">
    <path d="M270 184 H575 L536 552 H309 Z" fill="#FFFFFF"/>
    <path d="M297 184 H548 L534 305 H311 Z" fill="#EF4444"/>
    <path d="M309 552 H536 L518 604 H327 Z" fill="#111827" opacity="0.25"/>
    <circle cx="423" cy="372" r="72" fill="#FACC15"/>
    <path d="M359 372 H487" stroke="#111827" stroke-width="16" stroke-linecap="round" opacity="0.55"/>
  </g>
  <g filter="url(#shadow)">
    <circle cx="775" cy="266" r="130" fill="#FFFFFF"/>
    <path d="M645 266 A130 130 0 0 1 905 266 H645 Z" fill="#EF4444"/>
    <path d="M645 266 H905" stroke="#111827" stroke-width="14"/>
    <circle cx="775" cy="266" r="34" fill="#FFFFFF" stroke="#111827" stroke-width="12"/>
    <rect x="707" y="444" width="210" height="112" rx="36" fill="#FFFFFF"/>
    <path d="M752 499 H874" stroke="#111827" stroke-width="16" stroke-linecap="round" opacity="0.62"/>
  </g>
  <g fill="#FFFFFF" opacity="0.85">
    <rect x="120" y="120" width="154" height="76" rx="38"/>
    <rect x="925" y="112" width="156" height="76" rx="38"/>
  </g>
  <g stroke="#F97316" stroke-width="13" stroke-linecap="round" opacity="0.8">
    <path d="M162 428 L254 398"/>
    <path d="M168 491 L276 491"/>
    <path d="M976 431 L1068 398"/>
    <path d="M972 494 L1080 494"/>
  </g>
</svg>
