<svg xmlns="http://www.w3.org/2000/svg" viewBox="0 0 1200 675" role="img" aria-label="Mountain travel lifestyle trend">
  <defs>
    <linearGradient id="bg" x1="0" y1="0" x2="1" y2="1">
      <stop offset="0" stop-color="#C7F9D4"/>
      <stop offset="0.55" stop-color="#22A06B"/>
      <stop offset="1" stop-color="#063F35"/>
    </linearGradient>
    <filter id="shadow" x="-20%" y="-20%" width="140%" height="140%">
      <feDropShadow dx="0" dy="22" stdDeviation="24" flood-color="#062F28" flood-opacity="0.28"/>
    </filter>
  </defs>
  <rect width="1200" height="675" fill="url(#bg)"/>
  <path d="M0 570 L200 300 L390 510 L560 210 L820 575 Z" fill="#0F766E"/>
  <path d="M330 575 L575 265 L885 575 Z" fill="#064E3B"/>
  <path d="M660 575 L910 330 L1200 575 Z" fill="#14532D"/>
  <path d="M540 244 L577 304 L617 250" fill="#EAFBF0"/>
  <path d="M162 350 L200 300 L237 342" fill="#EAFBF0" opacity="0.86"/>
  <path d="M782 456 C700 422 643 454 594 505 C533 569 456 555 398 615" fill="none" stroke="#FDE68A" stroke-width="18" stroke-linecap="round" stroke-dasharray="2 32"/>
  <g filter="url(#shadow)">
    <rect x="780" y="305" width="176" height="226" rx="46" fill="#F97316"/>
    <rect x="808" y="254" width="120" height="100" rx="36" fill="#FB923C"/>
    <path d="M780 395 H956" stroke="#111827" stroke-width="16" stroke-linecap="round" opacity="0.28"/>
    <circle cx="868" cy="441" r="36" fill="#FDE68A"/>
  </g>
  <g fill="#FFFFFF" opacity="0.78">
    <rect x="145" y="128" width="180" height="88" rx="44"/>
    <rect x="924" y="115" width="144" height="70" rx="35"/>
  </g>
</svg>
