<svg xmlns="http://www.w3.org/2000/svg" viewBox="0 0 1200 675" role="img" aria-label="Brand calendar risk and coffee promotion issue">
  <defs>
    <linearGradient id="bg" x1="0" y1="0" x2="1" y2="1">
      <stop offset="0" stop-color="#D9F8E6"/>
      <stop offset="0.52" stop-color="#28A974"/>
      <stop offset="1" stop-color="#063B2C"/>
    </linearGradient>
    <filter id="shadow" x="-20%" y="-20%" width="140%" height="140%">
      <feDropShadow dx="0" dy="22" stdDeviation="24" flood-color="#063B2C" flood-opacity="0.28"/>
    </filter>
  </defs>
  <rect width="1200" height="675" fill="url(#bg)"/>
  <path d="M0 540 C169 485 285 590 426 515 C590 427 728 537 885 458 C1025 388 1120 414 1200 369 L1200 675 L0 675 Z" fill="#052B21" opacity="0.18"/>
  <g filter="url(#shadow)">
    <rect x="233" y="125" width="360" height="390" rx="40" fill="#FFFFFF"/>
    <rect x="233" y="125" width="360" height="82" rx="40" fill="#111827"/>
    <rect x="233" y="177" width="360" height="48" fill="#111827"/>
    <g fill="#CBD5E1">
      <rect x="286" y="260" width="58" height="58" rx="14"/>
      <rect x="379" y="260" width="58" height="58" rx="14"/>
      <rect x="472" y="260" width="58" height="58" rx="14"/>
      <rect x="286" y="353" width="58" height="58" rx="14"/>
      <rect x="379" y="353" width="58" height="58" rx="14"/>
      <rect x="472" y="353" width="58" height="58" rx="14"/>
    </g>
    <rect x="375" y="350" width="66" height="66" rx="18" fill="#EF4444"/>
  </g>
  <g filter="url(#shadow)">
    <path d="M742 232 H919 L888 493 H772 Z" fill="#F8FAFC"/>
    <path d="M760 232 H901 L887 292 H773 Z" fill="#111827"/>
    <path d="M741 232 C745 184 787 153 832 153 C877 153 916 184 920 232" fill="none" stroke="#F8FAFC" stroke-width="28" stroke-linecap="round"/>
  </g>
  <g transform="translate(688 126)">
    <path d="M196 382 L293 216 L390 382 Z" fill="#FACC15" stroke="#111827" stroke-width="12" stroke-linejoin="round"/>
    <rect x="286" y="280" width="14" height="58" rx="7" fill="#111827"/>
    <circle cx="293" cy="357" r="9" fill="#111827"/>
  </g>
  <g opacity="0.88">
    <path d="M96 598 L1110 160" stroke="#FACC15" stroke-width="34"/>
    <path d="M126 621 L1140 183" stroke="#111827" stroke-width="11" opacity="0.72"/>
  </g>
</svg>
