<svg xmlns="http://www.w3.org/2000/svg" viewBox="0 0 1200 675" role="img" aria-label="Private chat and social feed shift">
  <defs>
    <linearGradient id="bg" x1="0" y1="0" x2="1" y2="1">
      <stop offset="0" stop-color="#334155"/>
      <stop offset="0.55" stop-color="#111827"/>
      <stop offset="1" stop-color="#020617"/>
    </linearGradient>
    <filter id="shadow" x="-20%" y="-20%" width="140%" height="140%">
      <feDropShadow dx="0" dy="22" stdDeviation="24" flood-color="#000000" flood-opacity="0.32"/>
    </filter>
  </defs>
  <rect width="1200" height="675" fill="url(#bg)"/>
  <path d="M0 558 C190 492 305 610 470 519 C640 425 785 545 955 450 C1085 378 1153 398 1200 358 L1200 675 L0 675 Z" fill="#000000" opacity="0.24"/>
  <g filter="url(#shadow)">
    <rect x="170" y="106" width="360" height="462" rx="42" fill="#F8FAFC"/>
    <rect x="220" y="172" width="260" height="74" rx="28" fill="#E2E8F0"/>
    <rect x="220" y="276" width="260" height="74" rx="28" fill="#E2E8F0"/>
    <rect x="220" y="380" width="260" height="74" rx="28" fill="#E2E8F0"/>
    <circle cx="267" cy="209" r="18" fill="#64748B"/>
    <circle cx="267" cy="313" r="18" fill="#64748B"/>
    <circle cx="267" cy="417" r="18" fill="#64748B"/>
  </g>
  <g filter="url(#shadow)">
    <rect x="612" y="128" width="420" height="420" rx="52" fill="#0F172A"/>
    <rect x="662" y="192" width="244" height="76" rx="38" fill="#2563EB"/>
    <rect x="739" y="302" width="240" height="76" rx="38" fill="#1E293B"/>
    <rect x="662" y="412" width="290" height="76" rx="38" fill="#2563EB"/>
    <path d="M867 268 L916 294 L884 252 Z" fill="#2563EB"/>
    <path d="M742 378 L694 404 L726 362 Z" fill="#1E293B"/>
    <path d="M914 488 L966 516 L932 472 Z" fill="#2563EB"/>
  </g>
  <g stroke="#38BDF8" stroke-width="10" stroke-linecap="round" opacity="0.78">
    <path d="M545 257 C576 257 585 232 617 232"/>
    <path d="M545 337 C578 337 592 351 622 351"/>
    <path d="M545 421 C583 421 593 449 630 449"/>
  </g>
</svg>
