<svg xmlns="http://www.w3.org/2000/svg" viewBox="0 0 1200 675" role="img" aria-label="Short sound meme and creator crew energy">
  <defs>
    <linearGradient id="bg" x1="0" y1="0" x2="1" y2="1">
      <stop offset="0" stop-color="#F4E7FF"/>
      <stop offset="0.45" stop-color="#B45CFF"/>
      <stop offset="1" stop-color="#36156D"/>
    </linearGradient>
    <filter id="shadow" x="-20%" y="-20%" width="140%" height="140%">
      <feDropShadow dx="0" dy="22" stdDeviation="22" flood-color="#250B50" flood-opacity="0.28"/>
    </filter>
  </defs>
  <rect width="1200" height="675" fill="url(#bg)"/>
  <path d="M0 522 C148 490 234 552 363 512 C534 459 685 562 838 477 C1000 388 1118 421 1200 384 L1200 675 L0 675 Z" fill="#1C0F3C" opacity="0.18"/>
  <g filter="url(#shadow)">
    <rect x="258" y="128" width="685" height="360" rx="58" fill="#111827"/>
    <path d="M323 346 C420 254 487 407 570 310 C653 214 714 386 800 292 C856 231 896 253 927 293" fill="none" stroke="#FFE66F" stroke-width="34" stroke-linecap="round"/>
    <path d="M324 228 H462" stroke="#FFFFFF" stroke-width="24" stroke-linecap="round"/>
    <path d="M324 280 H522" stroke="#FFFFFF" stroke-width="24" stroke-linecap="round" opacity="0.72"/>
    <path d="M662 412 H878" stroke="#FFFFFF" stroke-width="24" stroke-linecap="round" opacity="0.82"/>
    <path d="M662 462 H807" stroke="#FFFFFF" stroke-width="24" stroke-linecap="round" opacity="0.55"/>
  </g>
  <g fill="#FFFFFF" opacity="0.86">
    <path d="M167 194 L195 257 L263 263 L211 306 L226 373 L167 337 L108 373 L123 306 L71 263 L139 257 Z"/>
    <rect x="913" y="97" width="130" height="130" rx="34" transform="rotate(12 978 162)"/>
    <rect x="119" y="455" width="150" height="88" rx="44" transform="rotate(-8 194 499)"/>
  </g>
  <g stroke="#FFE66F" stroke-width="14" stroke-linecap="round" opacity="0.9">
    <path d="M1010 360 L1096 324"/>
    <path d="M1014 414 L1114 414"/>
    <path d="M1008 468 L1092 507"/>
  </g>
</svg>
